# xmcd
#
# Track frame offsets:
#	150
#	19454
#	22253
#	36305
#	50468
#	70420
#	85411
#	102301
#	118154
#	132156
#	148743
#	165366
#
# Disc length: 2227 seconds
# Revision: 0
# Processed by: cddbd v1.5.2PL0 Copyright (c) Steve Scherf et al.
# Submitted via: dBpowerAMP V12.0
#
DISCID=b008b10c
DTITLE=Chris Hennessee - Revival
DYEAR=2013
DGENRE=Country
TTITLE0=Georgiana
TTITLE1=The Old Rugged Cross
TTITLE2=Day To Day
TTITLE3=My Father's Son
TTITLE4=Better Days
TTITLE5=Red Dress
TTITLE6=Jack and Jesus
TTITLE7=Revival
TTITLE8=Greener Grass
TTITLE9=Fire On The Mountain
TTITLE10=Circus
TTITLE11=Untitled
EXTD=
EXTT0=
EXTT1=
EXTT2=
EXTT3=
EXTT4=
EXTT5=
EXTT6=
EXTT7=
EXTT8=
EXTT9=
EXTT10=
EXTT11=
PLAYORDER=
